<svg 
 xmlns="http://www.w3.org/2000/svg"
 xmlns:xlink="http://www.w3.org/1999/xlink"
 width="36px" height="40px">
<path fill-rule="evenodd"  fill="rgb(254, 254, 254)"
 d="M34.966,17.268 C33.288,26.059 29.356,30.274 31.967,35.496 C32.605,36.411 32.847,37.257 32.501,37.966 C32.112,38.763 31.132,39.089 29.796,39.089 C25.870,39.089 18.873,36.271 14.807,34.302 C14.445,34.126 14.295,33.693 14.471,33.334 C14.646,32.974 15.080,32.824 15.442,32.999 C24.792,37.526 30.751,38.236 31.193,37.333 C31.634,36.428 27.393,32.198 18.044,27.670 C14.927,26.161 11.841,24.924 9.121,24.094 C8.737,23.976 8.521,23.571 8.639,23.189 C8.757,22.807 9.164,22.593 9.547,22.708 C12.338,23.561 15.496,24.826 18.679,26.367 C21.908,27.932 26.701,30.613 29.752,33.191 C29.280,30.450 30.222,27.904 31.324,24.735 C32.089,22.535 32.956,20.042 33.538,16.997 C35.194,8.311 29.890,5.914 29.663,5.816 L29.604,5.790 L29.535,5.755 C29.525,5.749 27.885,4.899 25.572,4.899 C22.500,4.899 19.700,6.342 17.248,9.188 C15.330,11.416 13.907,13.538 12.651,15.409 C10.398,18.768 8.525,21.554 5.226,22.655 C5.099,22.925 4.818,23.103 4.503,23.072 C2.872,22.913 2.355,23.209 2.293,23.337 C2.199,23.530 2.457,24.519 4.796,26.473 C5.103,26.731 5.144,27.188 4.886,27.493 C4.742,27.665 4.535,27.753 4.328,27.753 C4.163,27.753 3.998,27.697 3.861,27.583 C1.348,25.483 0.407,23.887 0.985,22.703 C1.338,21.981 2.164,21.614 3.476,21.585 C9.014,20.696 10.304,15.029 16.145,8.245 C19.439,4.420 22.903,3.451 25.572,3.451 C26.157,3.451 26.701,3.499 27.199,3.572 C27.274,2.527 27.814,1.547 28.662,0.981 C29.259,0.583 30.526,0.050 32.303,0.953 C33.206,1.412 33.836,2.341 33.947,3.378 C34.063,4.459 33.607,5.529 32.703,6.357 C34.362,8.179 36.061,11.529 34.966,17.268 ZM31.643,2.244 C30.804,1.818 30.053,1.797 29.471,2.184 C28.938,2.540 28.629,3.199 28.652,3.883 C29.642,4.165 30.229,4.482 30.229,4.482 C30.229,4.482 30.840,4.734 31.637,5.363 C32.260,4.831 32.571,4.185 32.501,3.532 C32.442,2.976 32.113,2.483 31.643,2.244 ZM8.578,27.715 C9.302,27.715 9.982,27.896 10.580,28.212 L11.669,26.819 C11.916,26.504 12.373,26.448 12.689,26.693 C13.006,26.939 13.063,27.394 12.816,27.709 L11.729,29.101 C12.429,29.860 12.861,30.871 12.861,31.981 C12.861,34.333 10.940,36.247 8.578,36.247 C6.217,36.247 4.297,34.333 4.297,31.981 C4.297,29.629 6.217,27.715 8.578,27.715 ZM8.578,34.799 C10.138,34.799 11.407,33.535 11.407,31.981 C11.407,30.428 10.138,29.163 8.578,29.163 C7.019,29.163 5.751,30.428 5.751,31.981 C5.751,33.535 7.019,34.799 8.578,34.799 Z"/>
</svg>