<svg 
 xmlns="http://www.w3.org/2000/svg"
 xmlns:xlink="http://www.w3.org/1999/xlink"
 width="30px" height="34px">
<path fill-rule="evenodd"  fill="rgb(254, 254, 254)"
 d="M28.105,33.352 L25.649,33.352 C24.634,33.352 23.808,32.526 23.807,31.511 C23.812,31.549 23.584,30.896 21.351,30.896 L9.070,30.896 C6.836,30.896 6.612,31.560 6.610,31.568 C6.614,32.525 5.788,33.352 4.772,33.352 L2.316,33.352 C1.300,33.352 0.474,32.525 0.474,31.509 L0.474,29.668 L0.474,28.439 L0.474,3.266 C0.474,1.573 1.851,0.196 3.544,0.196 L26.877,0.196 C28.570,0.196 29.947,1.573 29.947,3.266 L29.947,28.439 L29.947,29.668 L29.947,31.509 C29.947,32.525 29.121,33.352 28.105,33.352 ZM28.719,3.266 C28.719,2.250 27.893,1.423 26.877,1.423 L3.544,1.423 C2.528,1.423 1.702,2.250 1.702,3.266 L1.702,13.090 L28.719,13.090 L28.719,3.266 ZM28.719,14.317 L1.702,14.317 L1.702,25.983 L28.719,25.983 L28.719,14.317 ZM28.719,29.668 L28.719,28.439 L28.719,27.212 L1.702,27.212 L1.702,28.439 L1.702,29.668 L1.702,31.509 C1.702,31.848 1.977,32.123 2.316,32.123 L4.772,32.123 C5.110,32.123 5.386,31.848 5.386,31.509 C5.386,31.321 5.489,29.668 9.070,29.668 L21.351,29.668 C24.932,29.668 25.035,31.321 25.035,31.509 C25.035,31.848 25.311,32.123 25.649,32.123 L28.105,32.123 C28.444,32.123 28.719,31.848 28.719,31.509 L28.719,29.668 ZM10.912,18.615 C11.251,18.615 11.526,18.890 11.526,19.230 L11.526,20.151 C11.526,20.256 11.766,20.458 12.140,20.458 L18.281,20.458 C18.655,20.458 18.895,20.256 18.895,20.151 L18.895,19.230 C18.895,18.890 19.170,18.615 19.509,18.615 C19.848,18.615 20.123,18.890 20.123,19.230 L20.123,20.151 C20.123,20.997 19.297,21.686 18.281,21.686 L12.140,21.686 C11.125,21.686 10.298,20.997 10.298,20.151 L10.298,19.230 C10.298,18.890 10.573,18.615 10.912,18.615 ZM10.912,5.722 C11.251,5.722 11.526,5.996 11.526,6.336 L11.526,7.257 C11.526,7.362 11.766,7.563 12.140,7.563 L18.281,7.563 C18.655,7.563 18.895,7.362 18.895,7.257 L18.895,6.336 C18.895,5.996 19.170,5.722 19.509,5.722 C19.848,5.722 20.123,5.996 20.123,6.336 L20.123,7.257 C20.123,8.103 19.297,8.791 18.281,8.791 L12.140,8.791 C11.125,8.791 10.298,8.103 10.298,7.257 L10.298,6.336 C10.298,5.996 10.573,5.722 10.912,5.722 Z"/>
</svg>