<svg 
 xmlns="http://www.w3.org/2000/svg"
 xmlns:xlink="http://www.w3.org/1999/xlink"
 width="36px" height="28px">
<path fill-rule="evenodd"  fill="rgb(254, 254, 254)"
 d="M32.190,27.497 L3.676,27.497 C1.889,27.497 0.435,26.031 0.435,24.230 L0.435,3.317 C0.435,1.516 1.889,0.049 3.676,0.049 L32.190,0.049 C33.977,0.049 35.431,1.516 35.431,3.317 L35.431,24.230 C35.431,26.031 33.977,27.497 32.190,27.497 ZM34.135,3.317 C34.135,2.236 33.262,1.356 32.190,1.356 L3.676,1.356 C2.604,1.356 1.731,2.236 1.731,3.317 L1.731,24.230 C1.731,25.311 2.604,26.191 3.676,26.191 L32.190,26.191 C33.262,26.191 34.135,25.311 34.135,24.230 L34.135,3.317 ZM20.318,14.520 C19.661,15.092 18.797,15.379 17.933,15.379 C17.069,15.379 16.205,15.093 15.548,14.520 L3.252,3.812 C2.981,3.576 2.951,3.163 3.185,2.890 C3.420,2.616 3.830,2.588 4.099,2.823 L16.395,13.531 C17.229,14.257 18.637,14.257 19.471,13.531 L31.767,2.823 C32.036,2.588 32.445,2.616 32.681,2.890 C32.915,3.163 32.885,3.576 32.614,3.812 L20.318,14.520 Z"/>
</svg>