<svg 
 xmlns="http://www.w3.org/2000/svg"
 xmlns:xlink="http://www.w3.org/1999/xlink"
 width="188px" height="195px">
<path fill-rule="evenodd"  opacity="0.2" fill="rgb(4, 4, 5)"
 d="M184.243,117.404 C182.254,117.404 180.644,115.791 180.644,113.802 C180.644,112.841 180.598,111.906 180.570,110.962 C179.104,107.969 172.486,96.621 156.556,96.621 C138.592,96.621 132.459,111.074 132.206,111.689 C131.689,112.951 130.501,113.818 129.144,113.922 C127.788,114.017 126.483,113.357 125.784,112.191 C125.404,111.566 116.024,96.621 94.263,96.621 C72.331,96.621 62.837,112.035 62.742,112.191 C62.039,113.364 60.777,114.062 59.368,113.927 C58.004,113.818 56.823,112.946 56.314,111.675 C56.067,111.074 49.934,96.621 31.970,96.621 C16.062,96.621 9.440,107.942 7.956,110.960 C7.928,111.906 7.883,112.841 7.883,113.802 C7.883,115.791 6.273,117.404 4.283,117.404 C2.294,117.404 0.684,115.791 0.684,113.802 C0.684,112.775 0.726,111.764 0.758,110.747 C0.723,110.457 0.740,110.172 0.779,109.874 C2.730,61.574 40.472,25.350 90.664,23.689 L90.664,3.867 C90.664,1.878 92.274,0.265 94.263,0.265 C96.252,0.265 97.862,1.878 97.862,3.867 L97.862,23.689 C148.054,25.350 185.796,61.574 187.747,109.873 C187.786,110.175 187.804,110.462 187.768,110.758 C187.800,111.770 187.842,112.779 187.842,113.802 C187.842,115.791 186.232,117.404 184.243,117.404 ZM94.263,30.812 C56.781,30.812 17.221,54.132 9.324,97.675 C14.209,93.342 21.492,89.417 31.970,89.417 C47.544,89.417 56.127,98.078 60.134,103.887 C65.290,98.238 76.232,89.417 94.263,89.417 C112.294,89.417 123.236,98.238 128.392,103.887 C132.399,98.078 140.982,89.417 156.556,89.417 C167.034,89.417 174.317,93.342 179.203,97.675 C171.305,54.132 131.746,30.812 94.263,30.812 ZM51.073,158.758 C53.062,158.758 54.672,160.371 54.672,162.360 L54.672,169.565 C54.672,181.389 63.726,187.575 72.668,187.575 C81.610,187.575 90.664,181.389 90.664,169.565 L90.664,108.329 C90.664,106.340 92.274,104.726 94.263,104.726 C96.252,104.726 97.862,106.340 97.862,108.329 L97.862,169.565 C97.862,185.943 84.882,194.780 72.668,194.780 C60.454,194.780 47.474,185.943 47.474,169.565 L47.474,162.360 C47.474,160.371 49.084,158.758 51.073,158.758 Z"/>
</svg>